# xmcd
#
# Track frame offsets:
#	150
#	26931
#	47111
#	65194
#	93310
#	118547
#	147450
#	166136
#	184964
#	211478
#	237108
#	264798
#	285373
#
# Disc length: 4118 seconds
#
# Revision: 1
# Processed by: cddbd v1.5.2PL0 Copyright (c) Steve Scherf et al.
# Submitted via: audiograbber 1.83.01
#
DISCID=be10140d
DTITLE=Walter Trout - The Outsider
DYEAR=2008
DGENRE=Blues
TTITLE0=Welcome To The Human Race
TTITLE1=The Next Big Thing
TTITLE2=All My Life
TTITLE3=The Love Song Of J Alfred Blue
TTITLE4=Don T Wanna Fall
TTITLE5=Child Of Another Day
TTITLE6=Turn Your Eyes To Heaven
TTITLE7=The Restless Age
TTITLE8=Gone Too Long
TTITLE9=A Matter Of The Heart
TTITLE10=Can T Have It All
TTITLE11=Sanjay
TTITLE12=The Outsider
EXTD=
EXTT0=
EXTT1=
EXTT2=
EXTT3=
EXTT4=
EXTT5=
EXTT6=
EXTT7=
EXTT8=
EXTT9=
EXTT10=
EXTT11=
EXTT12=
PLAYORDER=
